<svg xmlns="http://www.w3.org/2000/svg" id="mermaid-1580157158095" width="100%" height="100%" viewBox="-50 -10 850 476" style="max-width:850px"><style>#mermaid-1580157158095 .actor{stroke:#ccf;fill:#ececff}#mermaid-1580157158095 text.actor{fill:#000;stroke:none}#mermaid-1580157158095 .actor-line{stroke:gray}#mermaid-1580157158095 .messageLine0{marker-end:&quot;url(#arrowhead)&quot;;stroke-width:1.5;stroke-dasharray:&quot;2 2&quot;;stroke:#333}#mermaid-1580157158095 #arrowhead{fill:#333}#mermaid-1580157158095 #crosshead path{fill:#333!important;stroke:#333!important}#mermaid-1580157158095 .messageText{fill:#333;stroke:none}</style><style>#mermaid-1580157158095{color:#000;font:400 16px &quot;Times New Roman&quot;}</style><g><line id="actor0" x1="75" x2="75" y1="5" y2="465" stroke="#999" stroke-width=".5" class="actor-line"/><rect width="150" height="65" x="0" y="0" fill="#eaeaea" stroke="#666" class="actor" rx="3" ry="3"/><text x="75" y="32.5" alignment-baseline="central" class="actor" dominant-baseline="central" style="text-anchor:middle"><tspan x="75" dy="0">Developer</tspan></text></g><g><line id="actor1" x1="275" x2="275" y1="5" y2="465" stroke="#999" stroke-width=".5" class="actor-line"/><rect width="150" height="65" x="200" y="0" fill="#eaeaea" stroke="#666" class="actor" rx="3" ry="3"/><text x="275" y="32.5" alignment-baseline="central" class="actor" dominant-baseline="central" style="text-anchor:middle"><tspan x="275" dy="0">NodeJS</tspan></text></g><g><line id="actor2" x1="475" x2="475" y1="5" y2="465" stroke="#999" stroke-width=".5" class="actor-line"/><rect width="150" height="65" x="400" y="0" fill="#eaeaea" stroke="#666" class="actor" rx="3" ry="3"/><text x="475" y="32.5" alignment-baseline="central" class="actor" dominant-baseline="central" style="text-anchor:middle"><tspan x="475" dy="0">Github Source code</tspan></text></g><g><line id="actor3" x1="675" x2="675" y1="5" y2="465" stroke="#999" stroke-width=".5" class="actor-line"/><rect width="150" height="65" x="600" y="0" fill="#eaeaea" stroke="#666" class="actor" rx="3" ry="3"/><text x="675" y="32.5" alignment-baseline="central" class="actor" dominant-baseline="central" style="text-anchor:middle"><tspan x="675" dy="0">Headless Chrome</tspan></text></g><defs><marker id="arrowhead" markerHeight="4" markerWidth="6" orient="auto" refX="5" refY="2"><path d="M 0,0 V 4 L6,2 Z"/></marker></defs><defs><marker id="crosshead" markerHeight="8" markerWidth="15" orient="auto" refX="16" refY="4"><path fill="#000" stroke="#000" stroke-width="1" d="M 9,2 V 6 L16,4 Z" style="stroke-dasharray:0,0"/><path fill="none" stroke="#000" stroke-width="1" d="M 0,1 L 6,7 M 6,1 L 0,7" style="stroke-dasharray:0,0"/></marker></defs><g><text x="175" y="93" class="messageText" style="text-anchor:middle">generate sequence diagrams</text><line x1="75" x2="275" y1="100" y2="100" stroke="#000" stroke-width="2" marker-end="url(#arrowhead)" class="messageLine0" style="fill:none"/></g><g><text x="377.5" y="128" class="messageText" style="text-anchor:middle">Collect sequence diagram source</text><line x1="280" x2="475" y1="135" y2="135" stroke="#000" stroke-width="2" marker-end="url(#arrowhead)" class="messageLine0" style="fill:none"/></g><g><text x="377.5" y="163" class="messageText" style="text-anchor:middle">Return sequence diagrams source</text><line x1="475" x2="280" y1="170" y2="170" stroke="#000" stroke-width="2" marker-end="url(#arrowhead)" class="messageLine0" style="fill:none"/></g><g><text x="477.5" y="198" class="messageText" style="text-anchor:middle">Render sequence diagrams from source</text><line x1="280" x2="675" y1="205" y2="205" stroke="#000" stroke-width="2" marker-end="url(#arrowhead)" class="messageLine0" style="fill:none"/></g><g><text x="477.5" y="233" class="messageText" style="text-anchor:middle">Return rendered SVG sequence diagrams</text><line x1="675" x2="280" y1="240" y2="240" stroke="#000" stroke-width="2" marker-end="url(#arrowhead)" class="messageLine0" style="fill:none"/></g><g><text x="377.5" y="268" class="messageText" style="text-anchor:middle">Store rendered sequence diagrams SVG</text><line x1="280" x2="475" y1="275" y2="275" stroke="#000" stroke-width="2" marker-end="url(#arrowhead)" class="messageLine0" style="fill:none"/></g><g><text x="377.5" y="303" class="messageText" style="text-anchor:middle">Generate &amp; store Readme&apos;s with embedded sequence diagram SVG</text><line x1="280" x2="475" y1="310" y2="310" stroke="#000" stroke-width="2" marker-end="url(#arrowhead)" class="messageLine0" style="fill:none"/></g><g><text x="275" y="338" class="messageText" style="text-anchor:middle">Inspect rendered Readmes &amp; SVG</text><line x1="75" x2="475" y1="345" y2="345" stroke="#000" stroke-width="2" marker-end="url(#arrowhead)" class="messageLine0" style="fill:none"/></g><g><text x="275" y="373" class="messageText" style="text-anchor:middle">Commit &amp; push Readmes &amp; rendered SVG</text><line x1="75" x2="475" y1="380" y2="380" stroke="#000" stroke-width="2" marker-end="url(#arrowhead)" class="messageLine0" style="fill:none"/></g><g><rect width="150" height="65" x="0" y="400" fill="#eaeaea" stroke="#666" class="actor" rx="3" ry="3"/><text x="75" y="432.5" alignment-baseline="central" class="actor" dominant-baseline="central" style="text-anchor:middle"><tspan x="75" dy="0">Developer</tspan></text></g><g><rect width="150" height="65" x="200" y="400" fill="#eaeaea" stroke="#666" class="actor" rx="3" ry="3"/><text x="275" y="432.5" alignment-baseline="central" class="actor" dominant-baseline="central" style="text-anchor:middle"><tspan x="275" dy="0">NodeJS</tspan></text></g><g><rect width="150" height="65" x="400" y="400" fill="#eaeaea" stroke="#666" class="actor" rx="3" ry="3"/><text x="475" y="432.5" alignment-baseline="central" class="actor" dominant-baseline="central" style="text-anchor:middle"><tspan x="475" dy="0">Github Source code</tspan></text></g><g><rect width="150" height="65" x="600" y="400" fill="#eaeaea" stroke="#666" class="actor" rx="3" ry="3"/><text x="675" y="432.5" alignment-baseline="central" class="actor" dominant-baseline="central" style="text-anchor:middle"><tspan x="675" dy="0">Headless Chrome</tspan></text></g></svg>